<?xml version="1.0" encoding="UTF-8"?>
<svg version="1.1" xmlns="http://www.w3.org/2000/svg" width="317" height="317">
<path d="M0 0 C1.17393311 0.29801514 1.17393311 0.29801514 2.37158203 0.60205078 C42.99177078 11.16250881 78.86007143 36.25220513 100.71875 72.4140625 C109.44754142 87.37492566 115.82603514 103.19832172 120 120 C120.48146484 121.90072266 120.48146484 121.90072266 120.97265625 123.83984375 C125.54532795 144.4984302 125.37037462 170.5366049 120 191 C119.70198486 192.17393311 119.70198486 192.17393311 119.39794922 193.37158203 C108.83749119 233.99177078 83.74779487 269.86007143 47.5859375 291.71875 C32.62507434 300.44754142 16.80167828 306.82603514 0 311 C-1.90072266 311.48146484 -1.90072266 311.48146484 -3.83984375 311.97265625 C-24.4984302 316.54532795 -50.5366049 316.37037462 -71 311 C-72.17393311 310.70198486 -72.17393311 310.70198486 -73.37158203 310.39794922 C-113.99177078 299.83749119 -149.86007143 274.74779487 -171.71875 238.5859375 C-180.44754142 223.62507434 -186.82603514 207.80167828 -191 191 C-191.48146484 189.09927734 -191.48146484 189.09927734 -191.97265625 187.16015625 C-196.54532795 166.5015698 -196.37037462 140.4633951 -191 120 C-190.80132324 119.21737793 -190.60264648 118.43475586 -190.39794922 117.62841797 C-179.83749119 77.00822922 -154.74779487 41.13992857 -118.5859375 19.28125 C-103.62507434 10.55245858 -87.80167828 4.17396486 -71 0 C-69.09927734 -0.48146484 -69.09927734 -0.48146484 -67.16015625 -0.97265625 C-46.5015698 -5.54532795 -20.4633951 -5.37037462 0 0 Z " fill="#5170FF" transform="translate(194,3)"/>
<path d="M0 0 C4.79702655 3.93664616 8.84564733 8.07553016 11 14 C11 15.32 11 16.64 11 18 C11.66 18 12.32 18 13 18 C13.2784375 17.01 13.2784375 17.01 13.5625 16 C17.67264781 7.42230023 24.86331409 2.48881415 33 -2 C33.75796875 -2.43699219 34.5159375 -2.87398438 35.296875 -3.32421875 C44.36632087 -7.78075681 57.1143247 -7.65012859 66.625 -4.5 C67.73875 -4.005 68.8525 -3.51 70 -3 C69.41993763 4.75451806 68.37559416 12.34742277 67 20 C66.34 20 65.68 20 65 20 C63.66666667 18.66666667 62.33333333 17.33333333 61 16 C55.92011333 12.73926193 49.79416133 13.5303984 44 14 C40.52847221 15.0658491 40.52847221 15.0658491 38 17 C37.154375 17.53625 36.30875 18.0725 35.4375 18.625 C29.99013271 23.93269121 27.68173378 29.04647162 27.4375 36.6875 C27.73374304 43.55713585 29.55197708 46.73110071 34.5625 51.375 C40.13227389 54.00798402 45.70310813 54.07224143 51.5703125 52.1640625 C53.77575606 51.19599651 55.88373195 50.14823257 58 49 C59.33194542 48.33056469 60.66487938 47.66308004 62 47 C61.41993763 54.75451806 60.37559416 62.34742277 59 70 C47.87851519 73.4793472 35.2842723 75.60972836 24.34765625 70.4609375 C17.19874394 66.01219673 11.64174761 60.58697418 8 53 C7.34 52.01 6.68 51.02 6 50 C5.67128906 50.4846875 5.34257812 50.969375 5.00390625 51.46875 C-3.68281787 63.71020404 -15.11245028 71.43249477 -30 74 C-42.29846383 75.08428485 -52.36180667 72.884116 -62 65 C-68.68682978 58.64897172 -71.570017 51.60820683 -72.2734375 42.43359375 C-72.59981543 29.5918776 -69.63217991 19.8287197 -61 10 C-60.49984375 9.40703125 -59.9996875 8.8140625 -59.484375 8.203125 C-44.07832511 -8.69865789 -19.19390526 -12.07603865 0 0 Z " fill="#FCFCFF" transform="translate(127,124)"/>
<path d="M0 0 C5.22859225 -0.12459983 10.45630019 -0.21480498 15.68603516 -0.2746582 C17.46092809 -0.29963627 19.23571993 -0.33363126 21.01025391 -0.37719727 C40.84630676 -0.85161046 40.84630676 -0.85161046 48 5 C52.87365528 10.38086827 52.65062154 15.25680512 52.4453125 22.23046875 C51.49616957 30.26488043 48.02551614 35.8550172 41.74609375 40.84375 C38.68605033 42.87008747 36.72918472 44 33 44 C37.98139334 52.98265142 43.05031615 61.85683201 48.56640625 70.5234375 C50 73 50 73 50 75 C42.08 75 34.16 75 26 75 C21.71 66.09 17.42 57.18 13 48 C11.43831198 54.89738431 11.43831198 54.89738431 10.1484375 61.81640625 C10.03161621 62.52482666 9.91479492 63.23324707 9.79443359 63.96313477 C9.65602051 64.82092529 9.51760742 65.67871582 9.375 66.5625 C8.92125 69.346875 8.4675 72.13125 8 75 C1.4 75 -5.2 75 -12 75 C-4.86458029 23.98174905 -4.86458029 23.98174905 0 0 Z " fill="#FCFDFF" transform="translate(199,120)"/>
<path d="M0 0 C4.70820699 2.7177455 7.5668006 6.64037771 9.75 11.5625 C11.25265691 17.74609534 9.29526243 22.775412 6.30078125 28.19921875 C3.0055014 33.22099282 -1.22047036 38.04649626 -7.0390625 40.11328125 C-13.26438882 41.37814437 -20.12859622 42.27017382 -25.86328125 39.1328125 C-30.20466556 35.43430228 -32.94654392 32.15625092 -33.62109375 26.390625 C-33.78890521 17.34854869 -32.86212682 12.34990955 -26.60546875 5.85546875 C-19.11753737 -1.09157368 -9.72888383 -4.05525177 0 0 Z " fill="#5271FF" transform="translate(109.25,137.4375)"/>
<path d="M0 0 C4.23803394 -0.24929611 7.97620652 -0.31340617 12.0625 0.9375 C14.30887707 3.32880462 14.41769889 4.18043677 14.625 7.375 C14.42684189 11.06194174 14.05221069 11.93226721 11.6875 15 C8.295162 17.5245306 5.9319665 18.13003224 1.8125 18.0625 C-0.0746875 18.0315625 -0.0746875 18.0315625 -2 18 C-2.23268915 11.71739294 -1.40454548 6.11980533 0 0 Z " fill="#5372FF" transform="translate(216,135)"/>
<path d="M0 0 C0.99 0.99 1.98 1.98 3 3 C3 3.66 3 4.32 3 5 C2.34 5 1.68 5 1 5 C0.67 6.32 0.34 7.64 0 9 C-0.33 9 -0.66 9 -1 9 C-0.67 6.03 -0.34 3.06 0 0 Z " fill="#6782FF" transform="translate(211,167)"/>
</svg>
